<?xml version="1.0" encoding="iso-8859-1"?>
<!-- Generator: Adobe Illustrator 19.0.0, SVG Export Plug-In . SVG Version: 6.00 Build 0)  -->
<svg version="1.1" id="Capa_1" xmlns="http://www.w3.org/2000/svg" xmlns:xlink="http://www.w3.org/1999/xlink" x="0px" y="0px"
	 viewBox="0 0 512.008 512.008" style="enable-background:new 0 0 512.008 512.008;" xml:space="preserve">
<g>
	<rect x="185.383" y="432.556" style="fill:#95A5A5;" width="141.241" height="61.793"/>
	<path style="fill:#3D324C;" d="M512.004,115.831l0.004,263.759H0l0.004-263.759c-0.295-19.796,15.514-36.083,35.31-36.378h441.379
		C496.49,79.748,512.299,96.035,512.004,115.831z"/>
	<g>
		<path style="fill:#BDC3C7;" d="M512.004,370.763v35.31c0,19.501-15.809,35.31-35.31,35.31H35.314
			c-19.501,0-35.31-15.809-35.31-35.31v-35.31H512.004z"/>
		<path style="fill:#BDC3C7;" d="M132.418,476.694H379.59c9.751,0,17.655,7.905,17.655,17.655v17.655H114.763v-17.655
			C114.763,484.598,122.667,476.694,132.418,476.694z"/>
	</g>
	<path style="fill:#B0D3F0;" d="M317.797,114.763H194.211c-4.875,0-8.828-3.952-8.828-8.828v-35.31
		c0-39.003,31.618-70.621,70.621-70.621s70.621,31.618,70.621,70.621v35.31c0,2.341-0.93,4.587-2.586,6.242
		C322.384,113.833,320.138,114.763,317.797,114.763z M203.039,97.108H308.97V70.625c0-29.252-23.713-52.966-52.966-52.966
		s-52.966,23.713-52.966,52.966V97.108z"/>
	<g>
		<path style="fill:#F0C419;" d="M141.245,344.28h-35.31c-9.751,0-17.655-7.904-17.655-17.655v-61.793
			c0-9.751,7.904-17.655,17.655-17.655h35.31c9.751,0,17.655,7.904,17.655,17.655c0,4.875-3.952,8.828-8.828,8.828
			s-8.828-3.952-8.828-8.828h-35.31v61.793h35.31V308.97h-8.828c-4.875,0-8.828-3.952-8.828-8.828s3.952-8.828,8.828-8.828h17.655
			c4.875,0,8.828,3.952,8.828,8.828v26.483C158.901,336.375,150.996,344.28,141.245,344.28z"/>
		<path style="fill:#F0C419;" d="M211.866,344.28h-26.483c-4.875,0-8.828-3.952-8.828-8.828v-79.448
			c0-4.875,3.952-8.828,8.828-8.828h26.483c19.501,0,35.31,15.809,35.31,35.31v26.483
			C247.176,328.471,231.367,344.28,211.866,344.28z M194.211,326.625h17.655c9.751,0,17.655-7.905,17.655-17.655v-26.483
			c0-9.751-7.904-17.655-17.655-17.655h-17.655V326.625z"/>
		<path style="fill:#F0C419;" d="M273.659,344.28c-4.875,0-8.828-3.952-8.828-8.828v-79.448c0-4.875,3.952-8.828,8.828-8.828
			c4.875,0,8.828,3.952,8.828,8.828v79.448C282.487,340.328,278.535,344.28,273.659,344.28z"/>
		<path style="fill:#F0C419;" d="M308.97,308.97h-35.31c-4.875,0-8.828-3.952-8.828-8.828v-44.138c0-4.875,3.952-8.828,8.828-8.828
			h35.31c14.626,0,26.483,11.857,26.483,26.483v8.828C335.452,297.113,323.596,308.97,308.97,308.97z M282.487,291.314h26.483
			c4.875,0,8.828-3.952,8.828-8.828v-8.828c0-4.875-3.952-8.828-8.828-8.828h-26.483V291.314z"/>
		<path style="fill:#F0C419;" d="M361.935,344.28c-4.875,0-8.828-3.952-8.828-8.828v-79.448c0-4.875,3.952-8.828,8.828-8.828
			s8.828,3.952,8.828,8.828v79.448C370.763,340.328,366.81,344.28,361.935,344.28z"/>
		<path style="fill:#F0C419;" d="M397.245,308.97h-35.31c-4.875,0-8.828-3.952-8.828-8.828v-44.138c0-4.875,3.952-8.828,8.828-8.828
			h35.31c14.626,0,26.483,11.857,26.483,26.483v8.828C423.728,297.113,411.871,308.97,397.245,308.97z M370.763,291.314h26.483
			c4.875,0,8.828-3.952,8.828-8.828v-8.828c0-4.875-3.952-8.828-8.828-8.828h-26.483V291.314z"/>
		<path style="fill:#F0C419;" d="M414.901,344.28c-4.875,0-8.828-3.952-8.828-8.828v-17.655c0-4.875-3.952-8.828-8.828-8.828
			h-26.483c-4.875,0-8.828-3.952-8.828-8.828s3.952-8.828,8.828-8.828h26.483c14.626,0,26.483,11.857,26.483,26.483v17.655
			C423.728,340.328,419.776,344.28,414.901,344.28z"/>
	</g>
	<g>
		<path style="fill:#FF5364;" d="M52.97,141.245h-8.828c-4.875,0-8.828-3.952-8.828-8.828s3.952-8.828,8.828-8.828h8.828
			c4.875,0,8.828,3.952,8.828,8.828S57.845,141.245,52.97,141.245z"/>
		<path style="fill:#FF5364;" d="M114.763,141.245H88.28c-4.875,0-8.828-3.952-8.828-8.828s3.952-8.828,8.828-8.828h26.483
			c4.875,0,8.828,3.952,8.828,8.828S119.638,141.245,114.763,141.245z"/>
		<path style="fill:#FF5364;" d="M114.763,176.556H44.142c-4.875,0-8.828-3.952-8.828-8.828s3.952-8.828,8.828-8.828h70.621
			c4.875,0,8.828,3.952,8.828,8.828S119.638,176.556,114.763,176.556z"/>
		<path style="fill:#FF5364;" d="M467.866,141.245h-8.828c-4.875,0-8.828-3.952-8.828-8.828s3.952-8.828,8.828-8.828h8.828
			c4.875,0,8.828,3.952,8.828,8.828S472.741,141.245,467.866,141.245z"/>
		<path style="fill:#FF5364;" d="M423.728,141.245h-26.483c-4.875,0-8.828-3.952-8.828-8.828s3.952-8.828,8.828-8.828h26.483
			c4.875,0,8.828,3.952,8.828,8.828S428.604,141.245,423.728,141.245z"/>
		<path style="fill:#FF5364;" d="M467.866,176.556h-70.621c-4.875,0-8.828-3.952-8.828-8.828s3.952-8.828,8.828-8.828h70.621
			c4.875,0,8.828,3.952,8.828,8.828S472.741,176.556,467.866,176.556z"/>
	</g>
	<path style="fill:#F0C419;" d="M185.383,97.108h141.241c4.875,0,8.828,3.952,8.828,8.828v79.448c0,19.501-15.809,35.31-35.31,35.31
		h-88.276c-19.501,0-35.31-15.809-35.31-35.31v-79.448C176.556,101.06,180.508,97.108,185.383,97.108z"/>
	<g>
		<path style="fill:#E57E25;" d="M203.039,141.245h-26.483c-4.875,0-8.828-3.952-8.828-8.828s3.952-8.828,8.828-8.828h26.483
			c4.875,0,8.828,3.952,8.828,8.828S207.914,141.245,203.039,141.245z"/>
		<path style="fill:#E57E25;" d="M203.039,176.556h-26.483c-4.875,0-8.828-3.952-8.828-8.828s3.952-8.828,8.828-8.828h26.483
			c4.875,0,8.828,3.952,8.828,8.828S207.914,176.556,203.039,176.556z"/>
		<path style="fill:#E57E25;" d="M335.452,141.245H308.97c-4.875,0-8.828-3.952-8.828-8.828s3.952-8.828,8.828-8.828h26.483
			c4.875,0,8.828,3.952,8.828,8.828S340.328,141.245,335.452,141.245z"/>
		<path style="fill:#E57E25;" d="M335.452,176.556H308.97c-4.875,0-8.828-3.952-8.828-8.828s3.952-8.828,8.828-8.828h26.483
			c4.875,0,8.828,3.952,8.828,8.828S340.328,176.556,335.452,176.556z"/>
		<path style="fill:#E57E25;" d="M256.004,176.556c-14.626,0-26.483-11.857-26.483-26.483c0-14.626,11.857-26.483,26.483-26.483
			c14.626,0,26.483,11.857,26.483,26.483C282.487,164.699,270.63,176.556,256.004,176.556z M256.004,141.245
			c-4.875,0-8.828,3.952-8.828,8.828s3.952,8.828,8.828,8.828s8.828-3.952,8.828-8.828S260.879,141.245,256.004,141.245z"/>
		<path style="fill:#E57E25;" d="M256.004,194.211c-4.875,0-8.828-3.952-8.828-8.828v-17.655c0-4.875,3.952-8.828,8.828-8.828
			s8.828,3.952,8.828,8.828v17.655C264.832,190.259,260.879,194.211,256.004,194.211z"/>
	</g>
</g>
<g>
</g>
<g>
</g>
<g>
</g>
<g>
</g>
<g>
</g>
<g>
</g>
<g>
</g>
<g>
</g>
<g>
</g>
<g>
</g>
<g>
</g>
<g>
</g>
<g>
</g>
<g>
</g>
<g>
</g>
</svg>
